<?xml version="1.0" encoding="utf-8"?>
<svg xmlns="http://www.w3.org/2000/svg" height="68px" viewBox="0 -960 960 960" width="68px" fill="#FFFFFF">
  <path d="M 286.79 -81 C 266.93 -81 250 -88.07 236 -102.21 C 222 -116.35 215 -133.35 215 -153.21 C 215 -173.07 222.07 -190 236.21 -204 C 250.35 -218 267.35 -225 287.21 -225 C 307.07 -225 324 -217.93 338 -203.79 C 352 -189.65 359 -172.65 359 -152.79 C 359 -132.93 351.93 -116 337.79 -102 C 323.65 -88 306.65 -81 286.79 -81 Z M 686.79 -81 C 666.93 -81 650 -88.07 636 -102.21 C 622 -116.35 615 -133.35 615 -153.21 C 615 -173.07 622.07 -190 636.21 -204 C 650.35 -218 667.35 -225 687.21 -225 C 707.07 -225 724 -217.93 738 -203.79 C 752 -189.65 759 -172.65 759 -152.79 C 759 -132.93 751.93 -116 737.79 -102 C 723.65 -88 706.65 -81 686.79 -81 Z M 346.969 -680.426 L 345 -513 C -27.07 -977.405 930.31 -768.167 633 -513 L 649.702 -671.249 L 346.969 -680.426 Z M 205 -801 L 794.07 -801 C 809.383 -801 821.033 -794 829.02 -780 C 837.007 -766 837 -752 829 -738 L 694 -495 C 686.667 -482.333 677.147 -472.167 665.44 -464.5 C 653.733 -456.833 640.92 -453 627 -453 L 324 -453 L 268 -349 L 759 -349 L 759 -289 L 277 -289 C 249 -289 228.833 -298.333 216.5 -317 C 204.167 -335.667 204.333 -356.667 217 -380 L 281 -498 L 129 -820 L 51 -820 L 51 -880 L 168 -880 L 205 -801 Z M 761.673 -749.788 L 633 -513 L 761.673 -749.788 Z"/>
</svg>